<svg width="305" height="305" viewBox="0 0 305 305" fill="none" xmlns="http://www.w3.org/2000/svg">
<path d="M101.785 89.7106C105.109 93.0341 105.109 98.4331 101.785 101.771C98.4615 105.094 93.0626 105.094 89.725 101.771C86.4015 98.4471 86.2192 86.2048 86.2192 86.2048C86.2192 86.2048 98.4475 86.3871 101.785 89.7106Z" stroke="white" stroke-width="4.20697" stroke-miterlimit="10"/>
<path d="M89.725 203.088C93.0485 199.765 98.4475 199.765 101.785 203.088C105.109 206.412 105.109 211.811 101.785 215.148C98.4615 218.472 86.2192 218.654 86.2192 218.654C86.2192 218.654 86.4015 206.426 89.725 203.088Z" stroke="white" stroke-width="4.20697" stroke-miterlimit="10"/>
<path d="M203.088 89.7106C199.765 93.0341 199.765 98.433 203.088 101.771C206.412 105.094 211.811 105.094 215.148 101.771C218.472 98.447 218.654 86.2048 218.654 86.2048C218.654 86.2048 206.412 86.3871 203.088 89.7106Z" stroke="white" stroke-width="4.20697" stroke-miterlimit="10"/>
<path d="M215.134 203.088C211.811 199.765 206.412 199.765 203.074 203.088C199.751 206.412 199.751 211.811 203.074 215.148C206.398 218.472 218.64 218.654 218.64 218.654C218.64 218.654 218.472 206.426 215.134 203.088Z" stroke="white" stroke-width="4.20697" stroke-miterlimit="10"/>
<path d="M302.205 152.436C302.205 152.436 268.899 109.778 220.295 84.5781C195.095 35.9596 152.437 2.66846 152.437 2.66846C152.437 2.66846 109.778 35.9736 84.5781 84.5781C35.9736 109.778 2.66846 152.436 2.66846 152.436C2.66846 152.436 35.9736 195.095 84.5781 220.295C109.778 268.913 152.437 302.204 152.437 302.204C152.437 302.204 195.095 268.899 220.295 220.295C268.899 195.095 302.205 152.436 302.205 152.436Z" stroke="white" stroke-width="4.20697" stroke-miterlimit="10"/>
<path d="M160.963 72.2657C160.963 76.9775 157.149 80.7918 152.437 80.7918C147.725 80.7918 143.911 76.9775 143.911 72.2657C143.911 67.5539 152.437 58.7754 152.437 58.7754C152.437 58.7754 160.963 67.568 160.963 72.2657Z" stroke="white" stroke-width="4.20697" stroke-miterlimit="10"/>
<path d="M72.2799 143.91C76.9917 143.91 80.806 147.725 80.806 152.436C80.806 157.148 76.9917 160.963 72.2799 160.963C67.5681 160.963 58.7896 152.436 58.7896 152.436C58.7896 152.436 67.5681 143.91 72.2799 143.91Z" stroke="white" stroke-width="4.20697" stroke-miterlimit="10"/>
<path d="M232.593 143.896C227.881 143.896 224.067 147.711 224.067 152.422C224.067 157.134 227.881 160.949 232.593 160.949C237.305 160.949 246.083 152.422 246.083 152.422C246.083 152.422 237.305 143.896 232.593 143.896Z" stroke="white" stroke-width="4.20697" stroke-miterlimit="10"/>
<path d="M160.949 232.593C160.949 227.881 157.134 224.067 152.423 224.067C147.711 224.067 143.896 227.881 143.896 232.593C143.896 237.305 152.423 246.084 152.423 246.084C152.423 246.084 160.949 237.305 160.949 232.593Z" stroke="white" stroke-width="4.20697" stroke-miterlimit="10"/>
<path d="M258.34 258.326C258.34 258.326 264.959 204.617 248.398 152.422C264.959 100.228 258.34 46.519 258.34 46.519C258.34 46.519 204.631 39.9001 152.437 56.4615C100.242 39.9001 46.5333 46.519 46.5333 46.519C46.5333 46.519 39.9143 100.228 56.4758 152.422C39.9143 204.617 46.5333 258.326 46.5333 258.326C46.5333 258.326 100.242 264.945 152.437 248.383C204.631 264.945 258.34 258.326 258.34 258.326Z" stroke="white" stroke-width="4.20697" stroke-miterlimit="10"/>
</svg>
